P3
15 9
255
20 56 144
20 56 144
255 255 255
20 56 144
20 56 144
20 56 144
20 56 144
20 56 144
20 56 144
20 56 144
20 56 144
20 56 144
20 56 144
20 56 144
20 56 144
20 56 144
20 56 144
255 255 255
20 56 144
20 56 144
255 255 255
255 255 255
255 255 255
255 255 255
255 255 255
255 255 255
255 255 255
255 255 255
255 255 255
255 255 255
255 255 255
255 255 255
255 255 255
255 255 255
255 255 255
20 56 144
20 56 144
20 56 144
20 56 144
20 56 144
20 56 144
20 56 144
20 56 144
20 56 144
20 56 144
20 56 144
20 56 144
255 255 255
20 56 144
20 56 144
255 255 255
255 255 255
255 255 255
255 255 255
255 255 255
255 255 255
255 255 255
255 255 255
255 255 255
255 255 255
20 56 144
20 56 144
255 255 255
20 56 144
20 56 144
20 56 144
20 56 144
20 56 144
20 56 144
20 56 144
20 56 144
20 56 144
20 56 144
20 56 144
20 56 144
255 255 255
255 255 255
255 255 255
255 255 255
255 255 255
255 255 255
255 255 255
255 255 255
255 255 255
255 255 255
255 255 255
255 255 255
255 255 255
255 255 255
255 255 255
20 56 144
20 56 144
20 56 144
20 56 144
20 56 144
20 56 144
20 56 144
20 56 144
20 56 144
20 56 144
20 56 144
20 56 144
20 56 144
20 56 144
20 56 144
255 255 255
255 255 255
255 255 255
255 255 255
255 255 255
255 255 255
255 255 255
255 255 255
255 255 255
255 255 255
255 255 255
255 255 255
255 255 255
255 255 255
255 255 255
20 56 144
20 56 144
20 56 144
20 56 144
20 56 144
20 56 144
20 56 144
20 56 144
20 56 144
20 56 144
20 56 144
20 56 144
20 56 144
20 56 144
20 56 144
