P3
26 13
255
59 59 106
255 255 255
59 59 106
255 255 255
59 59 106
255 255 255
59 59 106
255 255 255
59 59 106
255 255 255
59 59 106
255 255 255
59 59 106
165 48 56
165 48 56
165 48 56
165 48 56
165 48 56
165 48 56
165 48 56
165 48 56
165 48 56
165 48 56
165 48 56
165 48 56
165 48 56
59 59 106
59 59 106
255 255 255
59 59 106
255 255 255
59 59 106
255 255 255
59 59 106
255 255 255
59 59 106
255 255 255
59 59 106
59 59 106
255 255 255
255 255 255
255 255 255
255 255 255
255 255 255
255 255 255
255 255 255
255 255 255
255 255 255
255 255 255
255 255 255
255 255 255
255 255 255
59 59 106
255 255 255
59 59 106
255 255 255
59 59 106
255 255 255
59 59 106
255 255 255
59 59 106
255 255 255
59 59 106
255 255 255
59 59 106
165 48 56
165 48 56
165 48 56
165 48 56
165 48 56
165 48 56
165 48 56
165 48 56
165 48 56
165 48 56
165 48 56
165 48 56
165 48 56
59 59 106
59 59 106
255 255 255
59 59 106
255 255 255
59 59 106
255 255 255
59 59 106
255 255 255
59 59 106
255 255 255
59 59 106
59 59 106
255 255 255
255 255 255
255 255 255
255 255 255
255 255 255
255 255 255
255 255 255
255 255 255
255 255 255
255 255 255
255 255 255
255 255 255
255 255 255
59 59 106
255 255 255
59 59 106
255 255 255
59 59 106
255 255 255
59 59 106
255 255 255
59 59 106
255 255 255
59 59 106
255 255 255
59 59 106
165 48 56
165 48 56
165 48 56
165 48 56
165 48 56
165 48 56
165 48 56
165 48 56
165 48 56
165 48 56
165 48 56
165 48 56
165 48 56
59 59 106
59 59 106
255 255 255
59 59 106
255 255 255
59 59 106
255 255 255
59 59 106
255 255 255
59 59 106
255 255 255
59 59 106
59 59 106
255 255 255
255 255 255
255 255 255
255 255 255
255 255 255
255 255 255
255 255 255
255 255 255
255 255 255
255 255 255
255 255 255
255 255 255
255 255 255
59 59 106
255 255 255
59 59 106
255 255 255
59 59 106
255 255 255
59 59 106
255 255 255
59 59 106
255 255 255
59 59 106
255 255 255
59 59 106
165 48 56
165 48 56
165 48 56
165 48 56
165 48 56
165 48 56
165 48 56
165 48 56
165 48 56
165 48 56
165 48 56
165 48 56
165 48 56
255 255 255
255 255 255
255 255 255
255 255 255
255 255 255
255 255 255
255 255 255
255 255 255
255 255 255
255 255 255
255 255 255
255 255 255
255 255 255
255 255 255
255 255 255
255 255 255
255 255 255
255 255 255
255 255 255
255 255 255
255 255 255
255 255 255
255 255 255
255 255 255
255 255 255
255 255 255
165 48 56
165 48 56
165 48 56
165 48 56
165 48 56
165 48 56
165 48 56
165 48 56
165 48 56
165 48 56
165 48 56
165 48 56
165 48 56
165 48 56
165 48 56
165 48 56
165 48 56
165 48 56
165 48 56
165 48 56
165 48 56
165 48 56
165 48 56
165 48 56
165 48 56
165 48 56
255 255 255
255 255 255
255 255 255
255 255 255
255 255 255
255 255 255
255 255 255
255 255 255
255 255 255
255 255 255
255 255 255
255 255 255
255 255 255
255 255 255
255 255 255
255 255 255
255 255 255
255 255 255
255 255 255
255 255 255
255 255 255
255 255 255
255 255 255
255 255 255
255 255 255
255 255 255
165 48 56
165 48 56
165 48 56
165 48 56
165 48 56
165 48 56
165 48 56
165 48 56
165 48 56
165 48 56
165 48 56
165 48 56
165 48 56
165 48 56
165 48 56
165 48 56
165 48 56
165 48 56
165 48 56
165 48 56
165 48 56
165 48 56
165 48 56
165 48 56
165 48 56
165 48 56
255 255 255
255 255 255
255 255 255
255 255 255
255 255 255
255 255 255
255 255 255
255 255 255
255 255 255
255 255 255
255 255 255
255 255 255
255 255 255
255 255 255
255 255 255
255 255 255
255 255 255
255 255 255
255 255 255
255 255 255
255 255 255
255 255 255
255 255 255
255 255 255
255 255 255
255 255 255
165 48 56
165 48 56
165 48 56
165 48 56
165 48 56
165 48 56
165 48 56
165 48 56
165 48 56
165 48 56
165 48 56
165 48 56
165 48 56
165 48 56
165 48 56
165 48 56
165 48 56
165 48 56
165 48 56
165 48 56
165 48 56
165 48 56
165 48 56
165 48 56
165 48 56
165 48 56
